<?xml version="1.0" standalone="no"?>
<!DOCTYPE svg PUBLIC "-//W3C//DTD SVG 20010904//EN"
 "http://www.w3.org/TR/2001/REC-SVG-20010904/DTD/svg10.dtd">
<svg version="1.0" xmlns="http://www.w3.org/2000/svg"
 width="150.000000pt" height="180.000000pt" viewBox="0 0 150.000000 180.000000"
 preserveAspectRatio="xMidYMid meet">

<g transform="translate(0.000000,180.000000) scale(0.100000,-0.100000)"
fill="#000000" stroke="none">
<path d="M300 1251 c0 -258 4 -399 11 -420 21 -60 26 -61 469 -61 l400 0 0
390 c0 330 -2 396 -15 420 -31 59 -36 60 -470 60 l-395 0 0 -389z m588 270
c61 -28 114 -84 130 -140 31 -103 -4 -219 -82 -269 -22 -14 -43 -27 -45 -29
-2 -1 28 -46 66 -100 38 -54 72 -104 77 -110 5 -10 -12 -13 -78 -13 l-86 0
-21 42 c-36 71 -98 145 -169 202 -73 59 -94 93 -66 108 9 5 16 16 16 25 0 14
4 13 23 -5 13 -12 30 -22 39 -22 37 0 75 -23 92 -55 24 -44 42 -44 92 -1 l38
33 -37 54 c-20 30 -40 70 -43 89 -4 19 -15 50 -26 68 -11 18 -18 39 -15 47 4
9 -2 15 -16 17 -14 2 -21 10 -21 21 2 23 -23 22 -38 -3 -11 -17 -24 -20 -75
-20 -61 0 -94 -15 -51 -23 17 -3 14 -5 -10 -6 -29 -1 -92 -25 -92 -35 0 -2 10
-2 23 1 30 8 21 0 -30 -26 l-43 -21 0 101 0 101 198 -4 c182 -3 201 -5 250
-27z m-124 -153 c20 -28 20 -39 2 -32 -16 6 -40 54 -26 54 5 0 16 -10 24 -22z
m-183 -298 c17 -10 19 -22 19 -110 l0 -100 -81 0 -82 0 7 61 c15 127 68 185
137 149z"/>
<path d="M100 485 l0 -225 45 0 45 0 0 101 c0 90 2 100 18 97 15 -3 17 -17 20
-101 l3 -98 42 3 42 3 0 104 c0 84 -3 106 -16 114 -14 9 -14 12 4 30 16 16 19
30 15 89 -5 96 -20 108 -134 108 l-84 0 0 -225z m125 99 c0 -28 -4 -39 -15
-39 -16 0 -26 45 -16 72 11 28 31 7 31 -33z"/>
<path d="M359 681 l-29 -29 0 -157 c0 -165 8 -203 49 -225 28 -15 88 -12 121
5 43 22 52 66 48 238 l-3 149 -28 24 c-43 37 -118 34 -158 -5z m96 -197 c0
-117 -2 -139 -15 -139 -12 0 -15 22 -18 129 -3 137 0 160 21 153 9 -3 12 -40
12 -143z"/>
<path d="M570 484 l0 -225 43 3 42 3 3 88 3 87 35 0 c49 0 80 34 89 97 8 65
-8 126 -42 152 -21 17 -40 21 -99 21 l-74 0 0 -226z m120 127 c14 -26 13 -64
-2 -79 -22 -22 -28 -13 -28 43 0 56 11 70 30 36z"/>
<path d="M800 485 l0 -225 90 0 90 0 0 45 0 45 -45 0 -45 0 0 50 0 50 40 0 40
0 0 45 0 45 -40 0 c-40 0 -40 0 -40 39 0 40 0 40 43 43 42 3 42 3 45 46 l3 42
-90 0 -91 0 0 -225z"/>
<path d="M990 485 l0 -225 45 0 45 0 0 101 c0 90 2 100 18 97 14 -3 17 -17 20
-101 l3 -97 44 0 45 0 1 53 c1 36 3 44 8 27 14 -58 46 -80 113 -80 72 1 98 35
98 127 0 67 -15 96 -86 160 -28 26 -44 49 -42 60 5 26 32 22 36 -4 3 -20 9
-23 49 -23 l46 0 -6 42 c-8 58 -43 88 -103 88 -57 0 -82 -13 -99 -53 -9 -20
-14 -25 -15 -14 0 10 -11 29 -25 42 -22 23 -32 25 -110 25 l-85 0 0 -225z
m125 99 c0 -28 -4 -39 -15 -39 -16 0 -26 45 -16 72 11 28 31 7 31 -33z m171
-111 c24 -24 49 -55 54 -69 12 -31 4 -64 -15 -64 -16 0 -25 22 -25 61 0 28 -2
29 -43 29 -39 0 -44 3 -58 34 -13 28 -13 37 -2 52 7 10 13 27 13 38 0 17 3 15
15 -9 9 -16 36 -49 61 -72z"/>
</g>
</svg>
